<svg width="80" height="80" viewBox="0 0 80 80" fill="none" xmlns="http://www.w3.org/2000/svg">
<path d="M56.4532 66.6261L51.9424 64.0217" stroke="#D82828" stroke-width="4" stroke-linejoin="round"/>
<path d="M44.5377 52.3263C45.5778 52.3263 46.421 51.4831 46.421 50.4429C46.421 49.4028 45.5778 48.5596 44.5377 48.5596C43.4975 48.5596 42.6543 49.4028 42.6543 50.4429C42.6543 51.4831 43.4975 52.3263 44.5377 52.3263Z" fill="#D82828"/>
<path d="M35.7486 52.3263C36.7888 52.3263 37.632 51.4831 37.632 50.4429C37.632 49.4028 36.7888 48.5596 35.7486 48.5596C34.7084 48.5596 33.8652 49.4028 33.8652 50.4429C33.8652 51.4831 34.7084 52.3263 35.7486 52.3263Z" fill="#D82828"/>
<path d="M40.1431 56.0933V72.2763" stroke="#D82828" stroke-width="4" stroke-linecap="round" stroke-linejoin="round"/>
<path d="M57.9999 56.0933H22.2856" stroke="#D82828" stroke-width="4" stroke-linejoin="round"/>
<path d="M52.4198 59.8134C52.4198 63.2667 51.1263 66.5786 48.824 69.0205C46.5217 71.4624 43.399 72.8342 40.143 72.8342C36.887 72.8342 33.7643 71.4624 31.462 69.0205C29.1597 66.5786 27.8662 63.2667 27.8662 59.8134V54.6051C27.8662 51.1517 29.1597 47.8398 31.462 45.3979C33.7643 42.9561 36.887 41.5842 40.143 41.5842C43.399 41.5842 46.5217 42.9561 48.824 45.3979C51.1263 47.8398 52.4198 51.1517 52.4198 54.6051V59.8134Z" stroke="#D82828" stroke-width="4" stroke-linecap="round" stroke-linejoin="round"/>
<path d="M56.4532 46.6763L51.9424 49.2806" stroke="#D82828" stroke-width="4" stroke-linejoin="round"/>
<path d="M23.8325 46.6763L28.3434 49.2806" stroke="#D82828" stroke-width="4" stroke-linejoin="round"/>
<path d="M23.8325 66.6261L28.3433 64.0217" stroke="#D82828" stroke-width="4" stroke-linejoin="round"/>
<path fill-rule="evenodd" clip-rule="evenodd" d="M53.625 26.3889C53.625 24.7319 52.282 23.3889 50.625 23.3889C48.968 23.3889 47.625 24.7319 47.625 26.3889C47.625 28.0449 48.968 29.3889 50.625 29.3889C52.282 29.3889 53.625 28.0449 53.625 26.3889Z" fill="#D92327"/>
<path fill-rule="evenodd" clip-rule="evenodd" d="M32.375 26.3889C32.375 24.7319 31.032 23.3889 29.375 23.3889C27.718 23.3889 26.375 24.7319 26.375 26.3889C26.375 28.0449 27.718 29.3889 29.375 29.3889C31.032 29.3889 32.375 28.0449 32.375 26.3889Z" fill="#D92327"/>
<path fill-rule="evenodd" clip-rule="evenodd" d="M65 37.3078V35.6238C65 28.7648 62.396 22.7397 58.057 18.3827L66.026 10.4137C66.808 9.63275 66.808 8.36775 66.026 7.58575C65.245 6.80475 63.979 6.80475 63.198 7.58575L54.994 15.7887C50.871 12.8617 45.719 11.1648 40 11.1648C34.29 11.1648 29.146 12.8567 25.026 15.7767L16.836 7.58575C16.055 6.80475 14.789 6.80475 14.008 7.58575C13.227 8.36775 13.227 9.63275 14.008 10.4137L21.96 18.3667C17.611 22.7237 15 28.7558 15 35.6238V37.3078C10.997 38.2198 8 41.8088 8 46.0838V61.0838C8 64.9438 11.141 68.0838 15 68.0838C18.859 68.0838 22 64.9438 22 61.0838V60.0838H18V61.0838C18 62.7388 16.654 64.0838 15 64.0838C13.346 64.0838 12 62.7388 12 61.0838V46.0838C12 43.3278 14.243 41.0838 17 41.0838H19V35.6238C19 23.7698 27.832 15.1648 40 15.1648C52.168 15.1648 61 23.7698 61 35.6238V41.0838H63C65.757 41.0838 68 43.3278 68 46.0838V61.0838C68 62.7388 66.654 64.0838 65 64.0838C63.346 64.0838 62 62.7388 62 61.0838V60.0838H58V61.0838C58 64.9438 61.141 68.0838 65 68.0838C68.859 68.0838 72 64.9438 72 61.0838V46.0838C72 41.8088 69.003 38.2198 65 37.3078Z" fill="#D92327"/>
</svg>
